<svg xmlns="http://www.w3.org/2000/svg" fill="none" viewBox="0 0 149 149"><g clip-path="url(#a)"><path d="M83.328 25.367s-.447-14.788-.447-24.1c0-1.751 1.453-1.453 2.645-.373 3.166 2.905 56.322 63.548 63.176 71.073.41.447.41.82-.075 1.341-6.22 6.705-60.307 68.726-63.474 71.595-.93.856-2.346.111-2.346-1.23 0-15.682-.038-24.249-.038-24.249H46.041c-32.817.037-43.694-16.241-43.694-37.474V15.235c0-8.083 7.338-9.163 7.338-9.163v6.407c0 7.524 11.585 12.851 30.657 12.851 4.619.037 42.986.037 42.986.037Z" fill="#231F20"/><path d="M80.534 29.055v-24.1c0-1.752 1.379-1.49 2.422-.448 3.166 2.906 56.62 63.623 63.511 71.148.41.447.41.82-.075 1.34-6.22 6.743-60.307 68.727-63.436 71.633-.931.856-2.347.111-2.347-1.23 0-15.682-.037-24.249-.037-24.249H43.843C10.99 123.149.15 106.87.15 85.675V15.347c0-8.083 8.158-9.238 9.573-9.238v.82c-1.639.149-2.16 3.501-2.16 6.556 0 9.424 11.51 15.607 30.62 15.607 4.581-.037 42.352-.037 42.352-.037Z" fill="#FFD84E"/></g><defs><clipPath id="a"><path d="M0 149V0h149v149z" fill="#fff"/></clipPath></defs></svg>