<svg xmlns="http://www.w3.org/2000/svg" fill="none" viewBox="0 0 1073 230"><g filter="url(#a)"><path d="M0 0h980c44.18 0 80 35.817 80 80v123H62.725L0 0Z" fill="#000"/></g><path d="m189.193 43.932-33.955 129.14-46.015 2.598L67.475 45.23l43.974-4.082 17.813 76.075 17.256-76.075 42.675 2.784ZM299.594 166.02l-46.016 5.938-5.566-20.967h-21.153l-4.638 20.967-47.315-4.639L211.83 43.746l51.582-2.598 36.182 124.873Zm-54.922-43.417-7.051-32.286-6.865 32.286h13.916Zm138.418-1.485-3.897 41.192-78.115 6.123c.371-21.586.773-43.047 1.206-64.385.495-21.338 1.083-42.8 1.763-64.385h48.242a4542.667 4542.667 0 0 0-4.082 40.635 736.224 736.224 0 0 0-2.783 40.82c2.907.124 5.783.186 8.628.186h8.628c3.463 0 6.865-.031 10.205-.093s6.741-.093 10.205-.093Zm92.217-80.898a1824.67 1824.67 0 0 0-1.021 17.256 563.756 563.756 0 0 1-1.206 17.255l-39.336 2.041-.928 11.69h27.647l-2.041 28.76-27.832.927-.928 13.545h39.336c-.371 6.804-.773 13.576-1.206 20.318-.371 6.679-.711 13.39-1.021 20.132L386.801 174l2.969-133.78h85.537Zm129.419.742-6.68 125.801-48.613 4.453-25.977-67.354-4.082 68.653h-41.748l3.34-131.553 46.387-2.227 32.099 66.797 1.485-63.086 43.789-1.484Zm105.669.371-.928 39.336-27.647 1.113-7.05 87.949-39.151 2.041.186-87.949-27.647 1.485 1.113-43.79 101.124-.185Zm55.2 2.041L755.39 169.732l-39.151 2.041v-125.8l49.356-2.598Zm132.666-2.412-6.68 125.801-48.613 4.453-25.977-67.354-4.082 68.653h-41.748l3.34-131.553 46.387-2.227 32.099 66.797 1.485-63.086 43.789-1.484ZM1021.19 166.02l-46.02 5.938-5.566-20.967h-21.153l-4.639 20.967-47.314-4.639 36.924-123.574 51.582-2.598 36.186 124.873Zm-54.926-43.417-7.051-32.286-6.865 32.286h13.916Z" fill="#fff"/><defs><filter id="a" width="1073" height="217" x="0" y="0" color-interpolation-filters="sRGB" filterUnits="userSpaceOnUse"><feFlood flood-opacity="0" result="BackgroundImageFix"/><feColorMatrix in="SourceAlpha" result="hardAlpha" type="matrix" values="0 0 0 0 0 0 0 0 0 0 0 0 0 0 0 0 0 0 127 0"/><feOffset dx="13" dy="14"/><feComposite in2="hardAlpha" operator="out"/><feColorMatrix type="matrix" values="0 0 0 0 1 0 0 0 0 0.847472 0 0 0 0 0.306689 0 0 0 1 0"/><feBlend in2="BackgroundImageFix" mode="normal" result="effect1_dropShadow_26_255"/><feBlend in="SourceGraphic" in2="effect1_dropShadow_26_255" mode="normal" result="shape"/></filter></defs></svg>