<svg role="presentation" xmlns="http://www.w3.org/2000/svg" viewBox="0 0 34 34"><path fill="#111" d="M18.35 1l-2.99 2.91-3.66-2.02-1.55 3.88-4.16-.36.17 4.16-3.96 1.36 1.86 3.74L1 17.52l3.22 2.66-1.64 3.84 4.03 1.13.07 4.17 4.14-.61 1.77 3.78 3.53-2.22L19.28 33l2.32-3.47 4 1.22.7-4.11 4.15-.51-1.03-4.04L33 19.94l-2.59-3.27 2.4-3.42-3.71-1.94.8-4.1-4.17-.26-.94-4.07-3.93 1.45L18.35 1z"></path><path style="fill:none;stroke:#fff;stroke-linecap:square;stroke-width:1.8px" d="M22.84 13.42H11.13"></path><path style="fill:none;stroke:#fff;stroke-linecap:square;stroke-width:1.8px" d="M22.84 21.42H11.13"></path><path style="fill:none;stroke:#fff;stroke-linecap:square;stroke-width:1.8px" d="M22.84 17.42H11.13"></path></svg>